<?xml version="1.0" encoding="UTF-8"?>
<svg id="Positive" xmlns="http://www.w3.org/2000/svg" viewBox="0 0 1500 400">
  <defs>
    <style>
      .cls-1 {
        fill: #38444f;
      }
    </style>
  </defs>
  <g id="Text">
    <path class="cls-1" d="M299.15,259.47h-24.06v-118.12h77.44v21.58h-53.38v26.25h48.85v21.58h-48.85v48.71Z"/>
    <path class="cls-1" d="M370.76,259.47v-118.12h24.06v96.54h54.54v21.58h-78.6Z"/>
    <path class="cls-1" d="M467.88,259.47v-118.12h24.21v118.12h-24.21Z"/>
    <path class="cls-1" d="M567.34,261.22c-10.31,0-19.45-2.6-27.42-7.8-7.97-5.2-14.22-12.37-18.74-21.51-4.52-9.14-6.78-19.59-6.78-31.35s2.36-22.65,7.07-31.79c4.71-9.14,11.23-16.28,19.54-21.44,8.31-5.15,17.91-7.73,28.8-7.73,9.04,0,17.14,1.73,24.28,5.18,7.15,3.45,12.98,8.31,17.5,14.58,4.52,6.27,7.31,13.59,8.39,21.95h-25.23c-.78-5.93-3.43-10.72-7.95-14.37-4.52-3.65-10.19-5.47-16.99-5.47-6.22,0-11.67,1.63-16.33,4.89-4.67,3.26-8.31,7.83-10.94,13.71-2.62,5.88-3.94,12.76-3.94,20.64s1.33,14.97,4.01,21c2.67,6.03,6.42,10.7,11.23,14,4.81,3.31,10.38,4.96,16.7,4.96,4.96,0,9.38-.88,13.27-2.62,3.89-1.75,6.95-4.2,9.19-7.36,2.24-3.16,3.35-6.64,3.35-10.43v-4.52h-27.71v-19.1h33.98c5.74,0,10.06,1.46,12.98,4.38,2.92,2.92,4.38,7.24,4.38,12.98v45.5h-22.02v-13.71h-.58c-2.62,4.96-6.51,8.77-11.67,11.45-5.15,2.67-11.28,4.01-18.38,4.01Z"/>
    <path class="cls-1" d="M644.92,259.47v-118.12h24.06v46.08h50.46v-46.08h24.06v118.12h-24.06v-50.46h-50.46v50.46h-24.06Z"/>
    <path class="cls-1" d="M819.77,259.47h-24.21v-96.54h-34.71v-21.58h93.62v21.58h-34.71v96.54Z"/>
    <path class="cls-1" d="M913.25,259.47v-118.12h24.06v96.54h54.54v21.58h-78.6Z"/>
    <path class="cls-1" d="M1088.98,259.47h-78.89v-118.12h78.89v21.58h-54.83v24.79h50.46v21h-50.46v29.17h54.83v21.58Z"/>
    <path class="cls-1" d="M1142.79,259.47l-43.31-118.12h26.69l31.06,90.12h.58l30.77-90.12h26.1l-43.31,118.12h-28.58Z"/>
    <path class="cls-1" d="M1309.18,259.47h-78.89v-118.12h78.89v21.58h-54.83v24.79h50.46v21h-50.46v29.17h54.83v21.58Z"/>
    <path class="cls-1" d="M1331.79,259.47v-118.12h24.06v96.54h54.54v21.58h-78.6Z"/>
  </g>
  <polygon id="Clamp" class="cls-1" points="200 400 0 400 0 0 200 0 200 140 79 200 200 260 200 400"/>
</svg>