<?xml version="1.0" encoding="UTF-8"?><svg id="Layer_2" xmlns="http://www.w3.org/2000/svg" xmlns:xlink="http://www.w3.org/1999/xlink" viewBox="0 0 175.73 175.73"><defs><style>.cls-1{fill:url(#linear-gradient-2);}.cls-2{fill:url(#linear-gradient);}.cls-3{fill:#009cde;}</style><linearGradient id="linear-gradient" x1="73" y1="143.07" x2="144.95" y2="18.45" gradientUnits="userSpaceOnUse"><stop offset="0" stop-color="#d8ecfb"/><stop offset=".02" stop-color="#d9ecfb"/><stop offset=".36" stop-color="#eef6fd"/><stop offset=".68" stop-color="#fafcfe"/><stop offset="1" stop-color="#fff"/></linearGradient><linearGradient id="linear-gradient-2" x1="0" y1="138.69" x2="95.06" y2="138.69" gradientUnits="userSpaceOnUse"><stop offset="0" stop-color="#fff"/><stop offset=".03" stop-color="#f7fbfe"/><stop offset=".26" stop-color="#cae7f8"/><stop offset=".47" stop-color="#a6d7f3"/><stop offset=".67" stop-color="#8cccf0"/><stop offset=".86" stop-color="#7dc5ee"/><stop offset="1" stop-color="#78c3ee"/></linearGradient></defs><g id="Layer_1-2"><path class="cls-3" d="M29.29,0C13.11,0,0,13.11,0,29.29h0v146.44h146.44c16.18,0,29.29-13.11,29.29-29.29V0H29.29Z"/><path class="cls-2" d="M125.05,41.11c-3.77,5.53-39.59,60.05-44.27,66.47-4.68,6.43-11.69,17.82-27.32,22.79-.53.17-1.05.35-1.56.52,13.68.64,28.68.94,43.16.43-.02,0-.04.01-.06.02,11.19-2.84,21.47-8.85,29.61-32.23,10.13-29.11,26.44-77.14,26.44-77.14-14.46,6.14-21.92,13.15-26.01,19.14Z"/><path class="cls-1" d="M0,150.68c12.27-1.17,82.79-15.7,95.06-19.35-45.02,1.57-95.06-4.62-95.06-4.62v23.97Z"/></g></svg>