<svg xmlns="http://www.w3.org/2000/svg" width="382" height="54" viewBox="0 0 382 54">
  <defs>
    <style>
      .cls-1 {
        fill: #000;
        fill-rule: evenodd;
      }
    </style>
  </defs>
  <path id="BELEVEN" class="cls-1" d="M0.53,54H29.168a72.57,72.57,0,0,0,7.434-.732,17.531,17.531,0,0,0,6.3-1.758,14.3,14.3,0,0,0,5.31-5.273,14.64,14.64,0,0,0,1.941-7.507,13.142,13.142,0,0,0-2.728-8.514q-2.728-3.387-8.514-4.779a13.208,13.208,0,0,0,5.786-3.589,12.015,12.015,0,0,0,2.966-8.166A12.451,12.451,0,0,0,43.5,4.159Q39.348,0.313,31.585.313H0.53V54ZM17.266,11.19H24.59q3.771,0,5.292,1.318A4.593,4.593,0,0,1,31.4,16.17a4.872,4.872,0,0,1-1.52,3.863q-1.52,1.337-5.4,1.337H17.266V11.19Zm0,20.4h8.423q4.358,0,6.1,1.446a4.732,4.732,0,0,1,1.739,3.827,5.123,5.123,0,0,1-1.758,4.083q-1.758,1.52-6.042,1.52h-8.46V31.588ZM58.794,54h45.264V41.842H75.42V31.258h25.818V20.309H75.42V11.776h27.832V0.313H58.794V54Zm54.2,0h42.481V40.78H129.583V0.313h-16.59V54Zm49.988,0h45.264V41.842H179.607V31.258h25.818V20.309H179.607V11.776h27.832V0.313H162.981V54Zm69.2,0h17.981L270.1,0.313H253.261L241.332,38.949,229.249,0.313H211.907Zm43.3,0h45.264V41.842H292.107V31.258h25.818V20.309H292.107V11.776h27.832V0.313H275.481V54Zm54.309,0h15.6V24.522L365.5,54h15.637V0.313H365.5v29.7l-20.215-29.7H329.79V54Z"/>
</svg>
