<svg xmlns="http://www.w3.org/2000/svg" viewBox="0 0 702.89 241.41"><g id="Layer_2" data-name="Layer 2"><g id="logo"><g id="HON"><g id="HOUSE_OF_NERDS" data-name="HOUSE OF NERDS"><path d="M34,212.86v26.86a.74.74,0,0,1-.75.75H26.53a.74.74,0,0,1-.75-.75v-9.48a.76.76,0,0,0-.76-.75H9.51a.75.75,0,0,0-.75.75v9.48a.75.75,0,0,1-.76.75H1.24a.75.75,0,0,1-.75-.75V212.86a.76.76,0,0,1,.75-.76H8a.76.76,0,0,1,.76.76v9.07a.75.75,0,0,0,.75.75H25a.76.76,0,0,0,.76-.75v-9.07a.75.75,0,0,1,.75-.76h6.76A.75.75,0,0,1,34,212.86Z"/><path d="M56.92,226.29c0-9.6,7.26-15.12,18.48-15.12s18.52,5.52,18.52,15.12-7.29,15.12-18.52,15.12S56.92,235.89,56.92,226.29Zm28.57,0c0-5.35-3.85-8.39-10.09-8.39s-10.09,3-10.09,8.39,3.85,8.39,10.09,8.39S85.49,231.64,85.49,226.29Z"/><path d="M148.39,212.1a.76.76,0,0,1,.75.76V227.1c0,8.63-5.87,14.31-16.45,14.31s-16.5-5.68-16.5-14.31V212.86a.76.76,0,0,1,.76-.76h6.76a.76.76,0,0,1,.75.76v13.59c0,5,2.76,8.15,8.23,8.15s8.18-3.2,8.18-8.15V212.86a.76.76,0,0,1,.76-.76Z"/><path d="M204.08,231.6c0,5.83-5.39,9.81-15.69,9.81-6.95,0-12.84-1.81-17.23-5.07a.76.76,0,0,1-.12-1.1l3.35-3.94a.75.75,0,0,1,1-.1c3.32,2.55,7.77,4,13.14,4,4.86,0,7.29-.89,7.29-2.75s-2.27-2.43-8.1-2.92c-8.43-.73-16.09-2.59-16.09-8.91,0-6.08,6.56-9.41,15.56-9.41,5.73,0,11,1.3,14.87,3.76a.74.74,0,0,1,.17,1.1L199,220a.75.75,0,0,1-1,.15,19.93,19.93,0,0,0-10.82-2.78c-3.32,0-7.34.53-7.34,2.56s3.29,2.15,8.35,2.55C197.51,223.25,204.08,225.07,204.08,231.6Z"/><path d="M256.88,234.91v4.81a.75.75,0,0,1-.76.75H227.36a.75.75,0,0,1-.76-.75V212.86a.76.76,0,0,1,.76-.76h28.31a.76.76,0,0,1,.76.76v4.81a.76.76,0,0,1-.76.76H235.5a.76.76,0,0,0-.75.75v3.15a.76.76,0,0,0,.75.76h16.37a.76.76,0,0,1,.75.75v4.53a.76.76,0,0,1-.75.76H235.5a.75.75,0,0,0-.75.75v3.52a.76.76,0,0,0,.75.75h20.62A.76.76,0,0,1,256.88,234.91Z"/><path d="M307.29,226.29c0-9.6,7.26-15.12,18.48-15.12s18.52,5.52,18.52,15.12-7.29,15.12-18.52,15.12S307.29,235.89,307.29,226.29Zm28.58,0c0-5.35-3.85-8.39-10.1-8.39s-10.09,3-10.09,8.39,3.85,8.39,10.09,8.39S335.87,231.64,335.87,226.29Z"/><path d="M375.44,219.38v3.89a.76.76,0,0,0,.75.75H392.6a.76.76,0,0,1,.75.75v4.94a.75.75,0,0,1-.75.75H376.19a.76.76,0,0,0-.75.76v8.5a.75.75,0,0,1-.75.75h-6.76a.75.75,0,0,1-.76-.75V212.86a.76.76,0,0,1,.76-.76h28.19a.76.76,0,0,1,.76.76v5a.76.76,0,0,1-.76.75H376.19A.76.76,0,0,0,375.44,219.38Z"/><path d="M481.78,212.86v26.86a.74.74,0,0,1-.75.75h-6.18a.76.76,0,0,1-.54-.22l-16.81-17.1a.75.75,0,0,0-1.29.52v16.05a.74.74,0,0,1-.75.75H449a.75.75,0,0,1-.75-.75V212.86a.76.76,0,0,1,.75-.76h7.68a.76.76,0,0,1,.54.23l15.3,15.78a.75.75,0,0,0,1.3-.52V212.86a.76.76,0,0,1,.75-.76H481A.75.75,0,0,1,481.78,212.86Z"/><path d="M536.56,234.91v4.81a.75.75,0,0,1-.76.75H507a.74.74,0,0,1-.75-.75V212.86a.75.75,0,0,1,.75-.76h28.32a.75.75,0,0,1,.75.76v4.81a.75.75,0,0,1-.75.76H515.19a.76.76,0,0,0-.76.75v3.15a.76.76,0,0,0,.76.76h16.36a.75.75,0,0,1,.75.75v4.53a.75.75,0,0,1-.75.76H515.19a.75.75,0,0,0-.76.75v3.52a.76.76,0,0,0,.76.75H535.8A.76.76,0,0,1,536.56,234.91Z"/><path d="M583.55,240.2l-7-8.41a.75.75,0,0,0-.58-.27h-7.24a.75.75,0,0,0-.75.75v7.45a.75.75,0,0,1-.76.75h-6.72a.75.75,0,0,1-.75-.75V212.86a.76.76,0,0,1,.75-.76H579.6c7.25,0,12.88,3.21,12.88,9.69,0,4.36-2.54,7.25-6.41,8.7a.75.75,0,0,0-.31,1.19l6.54,7.55a.75.75,0,0,1-.57,1.24h-7.61A.74.74,0,0,1,583.55,240.2ZM579,225.52c3,0,5.11-.81,5.11-3.57s-2.15-3.56-5.11-3.56H568.64a.75.75,0,0,0-.75.75v5.63a.75.75,0,0,0,.75.75Z"/><path d="M649.16,226.29c0,8.92-6.93,14.18-17.83,14.18H616.24a.74.74,0,0,1-.75-.75V212.86a.75.75,0,0,1,.75-.76h15.09C642.23,212.1,649.16,217.37,649.16,226.29Zm-8.43,0c0-5-4-7.62-10.05-7.62h-6.17a.76.76,0,0,0-.76.75v13.73a.76.76,0,0,0,.76.76h6.17C636.76,233.91,640.73,231.31,640.73,226.29Z"/><path d="M702.89,231.6c0,5.83-5.39,9.81-15.68,9.81-7,0-12.84-1.81-17.24-5.07a.76.76,0,0,1-.12-1.1l3.35-3.94a.76.76,0,0,1,1-.1c3.31,2.55,7.77,4,13.13,4,4.86,0,7.3-.89,7.3-2.75s-2.27-2.43-8.11-2.92c-8.43-.73-16.09-2.59-16.09-8.91,0-6.08,6.57-9.41,15.56-9.41,5.73,0,11,1.3,14.88,3.76a.75.75,0,0,1,.16,1.1l-3.22,4a.74.74,0,0,1-1,.15A19.91,19.91,0,0,0,686,217.37c-3.32,0-7.33.53-7.33,2.56s3.28,2.15,8.35,2.55C696.33,223.25,702.89,225.07,702.89,231.6Z"/></g><g id="H"><path d="M4.45,1h62a4.36,4.36,0,0,1,4.36,4.36V54.47a.88.88,0,0,1-.88.88H1a.88.88,0,0,1-.88-.88V5.35A4.37,4.37,0,0,1,4.45,1Z"/><rect y="70.45" width="216.57" height="56.13" rx="0.88"/><path d="M150.17,1h62a4.37,4.37,0,0,1,4.37,4.37V54.47a.88.88,0,0,1-.88.88h-69a.88.88,0,0,1-.88-.88V5.34A4.36,4.36,0,0,1,150.17,1Z"/><path d="M1,141.82H70a.88.88,0,0,1,.88.88v49.13a4.36,4.36,0,0,1-4.36,4.36h-62a4.37,4.37,0,0,1-4.37-4.37V142.7A.88.88,0,0,1,1,141.82Z"/><path d="M146.7,141.82h69a.88.88,0,0,1,.88.88v49.12a4.37,4.37,0,0,1-4.37,4.37h-62a4.36,4.36,0,0,1-4.36-4.36V142.7A.88.88,0,0,1,146.7,141.82Z"/></g><g id="O"><rect x="403.22" y="68.83" width="69.2" height="59.36" rx="0.88"/><path d="M232.79,68.83h67.43a.88.88,0,0,1,.88.88v57.6a.88.88,0,0,1-.88.88H232.78a.87.87,0,0,1-.87-.87V69.71A.88.88,0,0,1,232.79,68.83Z"/><path d="M285.44,0H418.88a53.54,53.54,0,0,1,53.54,53.54v1a.78.78,0,0,1-.78.78h-239a.78.78,0,0,1-.78-.78v-1A53.54,53.54,0,0,1,285.44,0Z"/><path d="M232.68,141.82h239a.78.78,0,0,1,.78.78v1a53.54,53.54,0,0,1-53.54,53.54H285.44a53.54,53.54,0,0,1-53.54-53.54v-1a.78.78,0,0,1,.78-.78Z"/></g><g id="N"><rect x="487.36" y="68.83" width="65.97" height="59.36" rx="0.88"/><path d="M488.24,141.82h64.21a.88.88,0,0,1,.88.88v49.12a4.37,4.37,0,0,1-4.37,4.37H491.72a4.37,4.37,0,0,1-4.37-4.37V142.7A.88.88,0,0,1,488.24,141.82Z"/><rect x="635.74" y="68.83" width="65.97" height="59.36" rx="0.88"/><path d="M488,1H649.1a52.61,52.61,0,0,1,52.61,52.61v1a.67.67,0,0,1-.67.67H488a.67.67,0,0,1-.67-.67v-53A.67.67,0,0,1,488,1Z"/><path d="M636.62,141.82h64.21a.88.88,0,0,1,.88.88v49.12a4.37,4.37,0,0,1-4.37,4.37H640.11a4.37,4.37,0,0,1-4.37-4.37V142.7A.88.88,0,0,1,636.62,141.82Z"/></g></g></g></g></svg>