<?xml version="1.0" encoding="UTF-8"?>
<svg id="Layer_1" data-name="Layer 1" xmlns="http://www.w3.org/2000/svg" viewBox="0 0 229.1 105.24">
  <defs>
    <style>
      .cls-1 {
        fill: #231f20;
      }
    </style>
  </defs>
  <path class="cls-1" d="M149.69,21.33h0c-.44-.49-.94-.81-1.48-.97-.54-.15-1.13-.14-1.75.04-.63.18-1.26.56-1.9,1.13-.61.55-1.04,1.12-1.27,1.71-.24.59-.31,1.17-.21,1.72.09.56.34,1.06.74,1.5.39.44.85.73,1.38.87.52.14,1.12.1,1.8-.1.67-.21,1.3-.57,1.88-1.09.59-.53,1.03-1.13,1.32-1.79.25-.57.33-1.1.25-1.59-.08-.49-.33-.97-.75-1.44M150.21,20.87h0c.54.6.89,1.27,1.03,2.02.16.81.12,1.57-.12,2.3-.24.73-.69,1.39-1.34,1.97-1.01.91-2.12,1.34-3.32,1.28-1.2-.06-2.24-.57-3.12-1.55-.98-1.09-1.37-2.29-1.18-3.62.16-1.08.67-2.01,1.54-2.8.65-.58,1.36-.96,2.13-1.13.78-.17,1.56-.12,2.34.15.78.27,1.46.73,2.04,1.37ZM133.06,8.78h0l3.07,1.5-.23.48-.29-.14c-.22-.11-.39-.16-.5-.17-.11,0-.21.03-.29.09-.08.06-.17.19-.27.4l-2.7,5.54c-.12.25-.19.41-.19.47-.01.08.02.15.08.22.04.05.19.14.45.26l.43.21c.49.24.96.38,1.39.41.43.03.84-.02,1.24-.16.39-.14.84-.42,1.35-.84l.42.42-2.11,2.06-5.72-2.79.23-.48.25.12c.24.12.42.18.52.18.1,0,.2-.04.3-.12.09-.08.2-.23.32-.47l2.63-5.4c.13-.28.2-.47.21-.59,0-.11-.02-.21-.08-.29-.06-.08-.22-.18-.48-.31l-.25-.12.23-.48ZM96,9.11h0l.41-.2,1.81,2.16-.45.42c-.67-.52-1.38-.85-2.13-.97-.62-.11-1.2-.03-1.76.25-.33.16-.61.37-.81.62-.21.25-.33.5-.37.76-.04.25-.01.48.08.68.09.18.22.33.41.44.18.12.41.19.68.21.27.02.68,0,1.23-.1l1.7-.3c.21-.04.52-.06.95-.08.42-.02.77.01,1.05.09.28.07.53.21.76.4.23.19.41.43.55.71.31.63.3,1.32-.02,2.06-.32.74-.92,1.33-1.8,1.76-.45.22-.89.35-1.31.4-.42.04-.92,0-1.5-.13l.11.89-.4.2-1.92-2.6.47-.36c.45.43.93.75,1.43.96.5.21.99.31,1.47.31.48,0,.92-.1,1.33-.3.55-.27.95-.67,1.2-1.2.21-.44.22-.85.04-1.23-.17-.34-.43-.57-.79-.67-.36-.1-.91-.08-1.65.04l-1.63.29c-.91.16-1.62.14-2.12-.06-.5-.2-.87-.53-1.1-1-.18-.36-.24-.75-.17-1.17.06-.41.26-.83.6-1.26.34-.42.77-.76,1.29-1.02.44-.22.9-.34,1.38-.39.34-.03.67,0,1.01.08l-.03-.68ZM80.12,21.2h0c-.44.49-.71,1.02-.81,1.57-.09.56-.02,1.14.22,1.74.24.61.69,1.2,1.33,1.77.61.55,1.22.91,1.84,1.08.61.17,1.19.18,1.74.03.54-.15,1.01-.45,1.41-.89.4-.44.63-.93.72-1.46.08-.54-.01-1.13-.29-1.78-.28-.65-.7-1.23-1.28-1.76-.59-.53-1.23-.91-1.92-1.13-.59-.19-1.13-.22-1.61-.09-.48.13-.93.43-1.35.89ZM79.61,20.74h0c.54-.6,1.17-1.01,1.9-1.24.78-.25,1.55-.29,2.3-.12.75.17,1.45.54,2.1,1.13,1.01.91,1.55,1.97,1.62,3.17.07,1.2-.33,2.29-1.21,3.27-.98,1.09-2.14,1.61-3.48,1.55-1.09-.04-2.07-.46-2.94-1.24-.65-.58-1.09-1.25-1.34-2-.25-.75-.28-1.54-.09-2.34.19-.81.57-1.53,1.15-2.17ZM149.29,79.64h0l2.32,1.75c.23.17.38.27.44.28.08.02.16,0,.25-.07.06-.04.19-.2.39-.47l.52-.69c.52-.69.85-1.2.99-1.55.15-.35.17-.72.08-1.11-.09-.39-.3-.72-.65-.98-.29-.22-.61-.33-.96-.33-.35,0-.69.11-1.01.33-.32.22-.77.71-1.34,1.47l-1.04,1.37ZM146.22,77.32h0l2.59,1.95.98-1.3c.46-.61.75-1.05.86-1.32.17-.42.22-.8.14-1.15-.08-.35-.29-.66-.64-.91-.29-.22-.6-.32-.92-.29-.32.02-.62.15-.91.38-.18.15-.49.52-.93,1.09l-1.18,1.56ZM144.28,78.73h0l2.54-3.37c.62-.82,1.08-1.36,1.39-1.61.45-.37.91-.58,1.39-.63.48-.05.92.08,1.32.38.29.22.49.48.62.79.12.31.17.66.13,1.04-.02.25-.11.55-.25.89.34-.32.64-.54.88-.66.36-.18.74-.26,1.13-.23.39.03.75.17,1.08.42.32.24.56.55.71.92.15.37.2.78.14,1.21-.05.44-.21.87-.46,1.31-.25.44-.54.87-.86,1.3l-2.67,3.55-.43-.32.18-.24c.17-.23.26-.41.25-.55,0-.2-.12-.38-.35-.55l-4.91-3.7c-.23-.17-.4-.28-.52-.3s-.22-.02-.31.03c-.09.05-.22.18-.38.39l-.18.24-.42-.32ZM136.72,85.98h0l2.54-2.29.36.4-.17.15c-.21.19-.34.34-.39.46-.04.09-.04.19-.01.3.03.11.15.27.36.5l2.67,2.96c.48.53.89.86,1.25,1,.36.14.76.16,1.22.07.46-.1.86-.3,1.22-.63.36-.32.62-.72.77-1.2.16-.48.18-.9.08-1.27-.1-.37-.4-.83-.89-1.38l-2.56-2.84c-.19-.21-.35-.34-.47-.4-.12-.06-.25-.07-.37-.04-.12.03-.27.12-.45.28l-.18.17-.36-.4,2.19-1.97.36.4c-.4.36-.53.56-.54.74,0,.18.11.4.34.66l2.73,3.03c.5.55.81,1.11.93,1.66.12.56.08,1.12-.12,1.69-.2.57-.57,1.1-1.09,1.57-.5.45-1.05.75-1.66.9-.61.15-1.16.15-1.65,0-.49-.15-.96-.48-1.4-.98l-2.9-3.22c-.19-.21-.34-.34-.45-.39-.11-.05-.22-.06-.33-.03-.11.03-.25.12-.43.28l-.23.21-.36-.4ZM131.3,88.15h0l3.07-1.5.23.48-.29.14c-.22.11-.37.21-.44.29-.07.09-.11.18-.11.28,0,.1.05.25.15.46l2.7,5.54c.12.25.21.4.25.44.06.06.13.08.22.08.06,0,.22-.07.48-.19l.43-.21c.49-.24.89-.52,1.18-.84.29-.32.51-.68.64-1.08.13-.4.19-.93.17-1.58l.59-.08.33,2.93-5.72,2.79-.23-.48.25-.12c.24-.12.4-.22.46-.3.06-.08.09-.19.09-.31,0-.12-.06-.3-.18-.54l-2.63-5.4c-.13-.28-.25-.45-.33-.52-.09-.07-.18-.11-.28-.11-.1,0-.28.06-.54.19l-.25.12-.23-.48ZM120.96,90.6h0l3.34-.71.11.52-.24.05c-.27.06-.46.13-.56.22-.1.09-.15.21-.17.36-.01.11,0,.28.05.52l.7,3.29,2.53-4.14c.13-.22.21-.37.22-.43.02-.06.02-.12,0-.18-.23-.17-.39-.16-.63-.11l-.2.04-.11-.52,3.09-.66.11.52c-.25.05-.46.12-.65.22-.19.1-.33.21-.42.32-.21.24-.36.43-.45.57l-1.82,2.87,3.4,2.95c.31.27.54.45.71.53.17.09.33.14.49.16.16.02.4,0,.71-.08l.11.52-3.68.78-.11-.52.22-.05c.24-.05.39-.09.43-.11.18-.19.19-.25.18-.3-.02-.11-.22-.32-.58-.65l-2.51-2.23-.87,1.37.35,1.66c.06.28.13.47.21.56.08.09.19.15.32.17.1.02.36-.02.76-.1l.11.52-3.34.71-.11-.52.26-.06c.26-.05.43-.12.52-.19s.14-.17.17-.31c.03-.13,0-.35-.06-.66l-1.22-5.72c-.06-.3-.13-.5-.21-.6-.07-.1-.16-.16-.27-.19-.1-.03-.31,0-.62.06l-.19.04-.11-.52ZM101.76,89.8h0l7.04,1.5.33,2.45-.59.09c-.06-.4-.14-.73-.26-.97-.12-.25-.27-.47-.47-.67-.2-.2-.4-.34-.62-.44-.22-.1-.63-.21-1.23-.34l-2.11-.45-.68,3.18,1.04.22c.39.08.69.08.92-.01.23-.09.4-.22.51-.4.09-.13.17-.38.25-.74h.64s-.81,3.79-.81,3.79l-.61-.13.07-.33c.06-.29.08-.5.07-.64-.02-.14-.07-.28-.16-.41-.09-.14-.2-.24-.33-.31-.13-.07-.35-.14-.68-.21l-1.04-.22-.6,2.81c-.06.29-.09.47-.07.54.01.07.05.13.1.17.06.04.22.09.5.15l1.3.28c.73.15,1.31.19,1.76.1.45-.09.86-.28,1.25-.57.3-.23.62-.57.95-1.03l.52.32-1.54,2.51-7.31-1.55.11-.52.25.05c.29.06.47.08.55.06.12-.03.22-.1.3-.21.06-.07.12-.25.18-.52l1.27-5.96c.06-.27.07-.46.04-.56-.04-.1-.11-.19-.23-.27-.06-.04-.31-.11-.73-.2l.11-.52ZM93.24,84.81h0l2.8,1.62-.27.46-.21-.12c-.2-.11-.33-.18-.39-.19-.09-.02-.16-.02-.23.01-.21.23-.26.4-.29.63l-1.03,6.48,5.12-4.12c.18-.15.3-.27.36-.36.06-.11.07-.2.02-.3-.05-.09-.18-.2-.41-.33l-.25-.15.27-.46,2.38,1.37-.27.46c-.2-.12-.37-.19-.49-.21-.12-.01-.23,0-.34.03-.13.05-.32.17-.55.35l-6.34,4.97-.78-.45,1.16-7.96c.04-.26.06-.43.05-.5,0-.11-.03-.2-.06-.29-.04-.09-.09-.17-.17-.24-.07-.08-.19-.16-.35-.25l.27-.46ZM85.69,78.59h0l2.61,2.04-.33.42-.29-.23c-.18-.14-.31-.21-.39-.22-.08,0-.15.03-.21.11-.05.07-.09.18-.12.35l-.03.17-.6,3.57,3.54-1.43c.14-.06.23-.1.27-.13.13-.13.15-.18.15-.23-.09-.2-.18-.27-.33-.39l-.26-.2.33-.42,2.15,1.68-.33.42c-.19-.15-.34-.25-.45-.29-.11-.04-.22-.06-.32-.05-.1,0-.28.06-.52.16l-4.36,1.67-1.38,1.76c-.2.26-.31.44-.33.55-.02.11,0,.22.07.32.06.11.26.29.59.55l-.33.42-2.73-2.13.33-.42.21.17c.22.17.39.27.49.29.11.02.22,0,.33-.06.08-.04.21-.18.41-.43l1.23-1.57.72-4.72c.06-.38.06-.63,0-.76s-.22-.3-.48-.52l.33-.42ZM81.97,72.75h0l1.86,2.87-.45.29-.17-.27c-.13-.21-.25-.34-.34-.4-.09-.06-.19-.08-.29-.08-.1,0-.25.08-.44.2l-5.17,3.36c-.24.15-.37.25-.41.3-.05.06-.07.14-.05.23.01.06.09.21.25.45l.26.4c.3.46.62.82.98,1.07.35.25.73.42,1.15.5.41.08.94.07,1.59-.03l.15.58-2.87.68-3.47-5.34.45-.29.15.23c.15.23.27.37.36.42.09.05.2.07.31.05.12-.02.29-.1.52-.24l5.04-3.27c.26-.17.42-.3.48-.4.06-.1.09-.19.08-.29-.01-.1-.09-.27-.25-.51l-.15-.23.45-.29ZM77.06,63.08h0l2.21,6.4-1.93,1.53-.38-.45c.44-.4.73-.74.88-1.03.15-.29.23-.59.23-.91s-.1-.77-.31-1.38l-.62-1.82-3.22,1.11.29.83c.15.44.3.73.45.89.15.16.33.26.55.3s.49,0,.83-.12l.22-.08.2.59-3.67,1.26-.2-.59.32-.11c.32-.11.55-.24.69-.4s.22-.33.25-.53c.02-.19-.04-.5-.19-.93l-.32-.92-2.61.9c-.24.08-.4.16-.47.25-.08.08-.12.18-.14.3-.02.12.02.3.11.55l.08.22-.5.17-1.09-3.17.5-.17.07.2c.09.26.17.42.25.51.08.08.18.13.3.14.12.01.31-.03.58-.12l5.69-1.96c.25-.09.42-.17.51-.25.09-.08.14-.17.15-.28.02-.11-.01-.27-.09-.5l-.1-.28.5-.17ZM149.39,71.28h0l1.98-3.72c.48-.91.86-1.51,1.12-1.8.38-.43.81-.71,1.28-.84.47-.12.92-.07,1.36.17.32.17.56.4.73.68.17.29.27.62.29,1.01.02.25-.02.56-.11.92.29-.37.54-.63.76-.79.33-.24.69-.37,1.08-.4.39-.03.77.05,1.14.24.36.19.63.46.84.8.21.34.32.74.33,1.17.02.44-.07.89-.25,1.37-.18.47-.4.95-.65,1.42l-2.09,3.92-.47-.25.14-.26c.13-.25.19-.45.16-.58-.04-.19-.18-.35-.43-.49l-5.43-2.89c-.26-.14-.44-.21-.56-.22s-.22.02-.3.08c-.08.06-.19.21-.32.44l-.14.26-.47-.25ZM151.09,69.59h0l2.86,1.52.77-1.44c.36-.67.57-1.15.64-1.43.11-.44.09-.83-.04-1.16-.13-.33-.39-.6-.77-.8-.32-.17-.64-.22-.95-.15-.31.07-.59.24-.84.51-.16.18-.4.59-.74,1.22l-.92,1.73ZM154.48,71.39h0l2.56,1.36c.26.14.42.21.48.21.08,0,.16-.03.24-.11.05-.05.16-.23.32-.53l.41-.76c.4-.76.65-1.32.74-1.69.09-.37.06-.74-.09-1.11-.15-.37-.41-.66-.79-.86-.32-.17-.65-.23-1-.17-.35.05-.66.21-.95.48-.29.27-.65.82-1.09,1.66l-.81,1.52ZM144.95,36h-14.28c-.06,1.84-.44,3.59-1.08,5.21,1.28,2.34,2.01,5.02,2.01,7.87,0,8.3-6.18,15.16-14.19,16.24l.37,3.19c8.32-.94,14.46-5.42,18.11-9.22,2-6.51,3.46-12.62,3.46-12.62h9.34c-.66-3.81-1.95-7.41-3.76-10.68ZM129.08,42.38h0c-1.78,3.58-4.91,6.35-8.7,7.66.4.8.62,1.7.62,2.65,0,2.75-1.87,5.06-4.4,5.74.13,1.09.39,3.23.71,5.9,7.51-1.01,13.3-7.45,13.3-15.24,0-2.4-.55-4.68-1.53-6.71ZM109.85,49.85h0c-3.67-1.43-6.65-4.23-8.3-7.79-1.08,2.11-1.7,4.49-1.7,7.03,0,7.63,5.55,13.96,12.84,15.17.26-2.68.48-4.8.59-5.9-2.41-.75-4.16-3.01-4.16-5.67,0-1.03.26-2,.72-2.84ZM101.05,40.88h0c-.55-1.49-.87-3.08-.92-4.75h-15.38v-.31c-1.86,3.32-3.19,6.98-3.86,10.87h9.87s1.05,5.34,2.55,11.14c3.28,3.47,10.28,9.71,18.98,10.73l.31-3.29c-7.79-1.26-13.75-8.02-13.75-16.17,0-2.99.8-5.8,2.2-8.21ZM85.14,35.13h15.98v.5c0,1.45.22,2.84.62,4.16,2.4-3.48,6.11-5.98,10.41-6.8-.48-5.2-.96-10.68-1.23-14.58-10.99,1.23-20.42,7.63-25.79,16.72ZM102.16,40.97h0c1.5,3.7,4.5,6.63,8.26,8.02.78-.97,1.85-1.7,3.09-2.03-.22-2.23-.73-7.35-1.26-12.97-4.25.84-7.88,3.42-10.09,6.98ZM119.84,49.17h0c3.87-1.27,7.02-4.16,8.65-7.88-2.19-3.72-5.91-6.43-10.29-7.29-.55,5.75-1.08,10.81-1.32,13.05,1.2.38,2.23,1.14,2.96,2.13ZM128.94,40.11h0c.48-1.44.75-2.99.75-4.61v-.5h14.69c-5.24-8.78-14.29-15.03-24.86-16.48-.3,4.4-.76,9.64-1.22,14.47,4.44.84,8.25,3.47,10.64,7.12ZM95.13,61.9h0c1.21,8.68,7.79,15.61,16.22,17.25.26-3.24.55-6.56.83-9.6-5.9-.68-11.01-3.66-14.77-6.62-1.39-1.09-2.6-2.18-3.6-3.16.19.71.39,1.42.6,2.12h.72ZM118.97,79.16h0c5.08-.96,9.49-3.85,12.47-7.88,2.24-2.57,2.62-6.19,3.82-9.92-3.85,3.54-9.7,7.29-17.35,8.15.36,3.15.74,6.54,1.05,9.65ZM132.68,71.28h0c-3.14,4.57-7.99,7.85-13.61,8.89.25,2.51.46,4.79.58,6.54,10.1-1.42,18.79-7.22,24.09-15.42h-11.05ZM111.27,80.16h0c-5.6-1.06-10.42-4.33-13.55-8.88h-11.86c5.45,8.43,14.48,14.33,24.94,15.54.12-2.07.28-4.33.46-6.66ZM110.84,16.91h0c-.09-1.48-.13-2.62-.11-3.27.25-8.37,9.62-9.87,9,1.62l-.1,1.75c15.61,2.09,28.04,14.21,30.61,29.66h15.35c-2.94-25.43-24.56-45.18-50.78-45.18s-47.84,19.75-50.78,45.18h15.34c2.62-15.73,15.46-28.01,31.47-29.77ZM119.73,88.21h0c.02.53.03.97.02,1.29-.25,8.27-9.38,9.83-9.02-1.19-15.63-1.76-28.23-13.56-31.19-28.8h-15.4c3.37,24.97,24.76,44.23,50.66,44.23s47.29-19.25,50.66-44.23h-15.4c-2.91,14.96-15.1,26.6-30.33,28.69ZM164.12,34.24h53.35l11.62,13.01h-24.88l9.38,11h-23.25l9,12.37h-35.09c-7.35,20.19-26.72,34.62-49.46,34.62s-42.11-14.42-49.46-34.62H29.75l9-12.37H15.5l9.37-11H0l11.62-13.01h53.85C72.93,14.24,92.2,0,114.8,0s41.87,14.24,49.32,34.24Z"/>
</svg>