<?xml version="1.0" encoding="UTF-8"?><svg id="Layer_1" xmlns="http://www.w3.org/2000/svg" xmlns:xlink="http://www.w3.org/1999/xlink" viewBox="0 0 280.99 85.56"><defs><style>.cls-1{fill:url(#linear-gradient-2);}.cls-2{fill:none;stroke:#1d1d1b;stroke-miterlimit:10;stroke-width:.5px;}.cls-3{fill:url(#linear-gradient);}.cls-4{fill:#1d1d1b;}.cls-5{fill:#009cde;}</style><linearGradient id="linear-gradient" x1="35.67" y1="69.95" x2="70.83" y2="9.06" gradientUnits="userSpaceOnUse"><stop offset="0" stop-color="#d8ecfb"/><stop offset=".02" stop-color="#d9ecfb"/><stop offset=".36" stop-color="#eef6fd"/><stop offset=".68" stop-color="#fafcfe"/><stop offset="1" stop-color="#fff"/></linearGradient><linearGradient id="linear-gradient-2" x1="0" y1="67.81" x2="46.45" y2="67.81" gradientUnits="userSpaceOnUse"><stop offset="0" stop-color="#fff"/><stop offset=".03" stop-color="#f7fbfe"/><stop offset=".26" stop-color="#cae7f8"/><stop offset=".47" stop-color="#a6d7f3"/><stop offset=".67" stop-color="#8cccf0"/><stop offset=".86" stop-color="#7dc5ee"/><stop offset="1" stop-color="#78c3ee"/></linearGradient></defs><path d="M104.03,0h23.16c10.51,0,16.2,5.84,16.2,15.61s-5.7,15.68-16.2,15.61h-16.13v21.6h-7.03V0ZM111.05,25.3h13.76c7.92.07,11.54-3.4,11.54-9.69s-3.62-9.69-11.54-9.69h-13.76v19.38Z"/><path d="M153.14,7.69h-6.29V0h6.29v7.69ZM146.85,14.57h6.29v38.25h-6.29V14.57Z"/><path d="M158.3,0h6.29v52.82h-6.29V0Z"/><path d="M187.02,13.69c12.13,0,18.57,8.8,18.57,20.05s-6.44,19.97-18.57,19.97-18.57-8.8-18.57-19.97,6.44-20.05,18.57-20.05ZM187.02,48.16c6.58,0,11.91-5.18,11.91-14.43s-5.33-14.5-11.91-14.5-11.91,5.18-11.91,14.5,5.33,14.43,11.91,14.43Z"/><path d="M215.64,14.57h7.62v5.55h-7.62v23.75c0,2.88.81,3.4,4.74,3.4h2.89v5.55h-4.81c-6.51,0-9.1-1.33-9.1-8.36V.02h6.29v14.56Z"/><path class="cls-5" d="M14.31.04C6.41.04,0,6.45,0,14.35h0v71.56h71.56c7.9,0,14.31-6.41,14.31-14.31V.04H14.31Z"/><path class="cls-3" d="M61.1,20.13c-1.84,2.7-19.35,29.34-21.63,32.48-2.28,3.14-5.71,8.71-13.35,11.14-.26.08-.51.17-.76.26,6.69.31,14.01.46,21.09.21,0,0-.02,0-.03,0,5.47-1.39,10.49-4.33,14.47-15.75,4.95-14.22,12.92-37.69,12.92-37.69-7.07,3-10.71,6.43-12.71,9.35Z"/><path class="cls-1" d="M0,73.67c6-.57,40.45-7.67,46.45-9.46-22,.77-46.45-2.26-46.45-2.26v11.71Z"/><path class="cls-4" d="M113.63,70.92v1.22h-8.08v5.42h7.18v1.22h-7.18v7.14h-1.43v-14.99h9.51Z"/><path class="cls-4" d="M117.04,70.92v13.78h8.4v1.22h-9.83v-14.99h1.43Z"/><path class="cls-4" d="M128.63,70.92v14.99h-1.43v-14.99h1.43Z"/><path class="cls-4" d="M143.75,85.91l-.19-2.73h-.04c-.25.53-.56.99-.93,1.38-.37.39-.78.7-1.23.95-.45.25-.93.42-1.44.54-.51.11-1.04.17-1.59.17-1.18,0-2.21-.21-3.1-.64-.89-.43-1.63-1-2.22-1.71s-1.03-1.54-1.32-2.48c-.29-.94-.44-1.92-.44-2.96s.15-2.02.44-2.96c.29-.94.74-1.77,1.32-2.49.59-.72,1.33-1.29,2.22-1.72s1.92-.64,3.1-.64c.78,0,1.53.1,2.23.31.7.21,1.32.53,1.87.95.55.42,1.01.94,1.39,1.55.38.62.64,1.34.78,2.16h-1.43c-.04-.43-.19-.87-.43-1.31-.25-.44-.57-.84-.99-1.21-.41-.36-.91-.66-1.48-.89-.57-.23-1.22-.35-1.93-.35-.99,0-1.85.19-2.56.57s-1.3.88-1.75,1.5c-.46.62-.79,1.33-1.01,2.11-.22.78-.33,1.59-.33,2.42s.11,1.61.33,2.41c.22.79.55,1.5,1.01,2.12.45.62,1.04,1.12,1.75,1.5s1.57.57,2.56.57c.83,0,1.56-.14,2.22-.41.65-.27,1.2-.65,1.65-1.14.45-.49.78-1.07,1.01-1.74.22-.67.33-1.41.31-2.2h-5.1v-1.22h6.36v7.62h-1.03Z"/><path class="cls-4" d="M149.16,70.92v6.51h8.9v-6.51h1.43v14.99h-1.43v-7.27h-8.9v7.27h-1.43v-14.99h1.43Z"/><path class="cls-4" d="M173,70.92v1.22h-5.23v13.78h-1.43v-13.78h-5.21v-1.22h11.86Z"/><path class="cls-4" d="M186.65,70.92l5.88,14.99h-1.53l-1.83-4.66h-6.83l-1.81,4.66h-1.51l6.03-14.99h1.6ZM188.69,80.03l-2.9-7.69-3,7.69h5.9Z"/><path class="cls-4" d="M204.45,73.91c-.29-.46-.64-.84-1.05-1.14-.41-.31-.87-.54-1.37-.7-.5-.16-1.02-.24-1.56-.24-.99,0-1.85.19-2.56.57-.71.38-1.3.88-1.75,1.5s-.79,1.33-1.01,2.11c-.22.78-.33,1.59-.33,2.42s.11,1.61.33,2.41c.22.79.55,1.5,1.01,2.12.46.62,1.04,1.12,1.75,1.5.71.38,1.57.57,2.56.57.7,0,1.33-.13,1.89-.38.56-.25,1.04-.6,1.45-1.03s.74-.94.99-1.52.41-1.21.48-1.88h1.43c-.1.92-.32,1.76-.65,2.5s-.77,1.37-1.3,1.89c-.53.52-1.16.92-1.88,1.2-.72.28-1.52.42-2.4.42-1.18,0-2.21-.21-3.1-.64-.89-.43-1.63-1-2.22-1.71-.59-.71-1.03-1.54-1.32-2.48-.29-.94-.44-1.92-.44-2.96s.15-2.02.44-2.96c.29-.94.73-1.77,1.32-2.49.59-.72,1.33-1.29,2.22-1.72s1.92-.64,3.1-.64c.71,0,1.41.1,2.09.31.68.21,1.29.52,1.85.93.55.41,1.01.92,1.39,1.52.37.6.61,1.3.7,2.08h-1.43c-.13-.57-.33-1.09-.62-1.54Z"/><path class="cls-4" d="M215.08,70.92l5.88,14.99h-1.53l-1.83-4.66h-6.82l-1.81,4.66h-1.51l6.03-14.99h1.6ZM217.12,80.03l-2.9-7.69-3,7.69h5.9Z"/><path class="cls-4" d="M227.73,70.92c2.28.06,4,.7,5.16,1.92,1.16,1.23,1.73,3.08,1.73,5.58s-.58,4.35-1.73,5.58c-1.16,1.22-2.87,1.87-5.16,1.92h-5.19v-14.99h5.19ZM227.01,84.69c1.08,0,2-.12,2.78-.35.78-.23,1.42-.6,1.92-1.1.5-.5.87-1.15,1.11-1.95.24-.8.36-1.76.36-2.88s-.12-2.08-.36-2.88-.61-1.45-1.11-1.95c-.5-.5-1.14-.87-1.92-1.1-.78-.23-1.71-.35-2.78-.35h-3.04v12.56h3.04Z"/><path class="cls-4" d="M247.49,70.92v1.22h-8.92v5.42h8.36v1.22h-8.36v5.92h9.03v1.22h-10.46v-14.99h10.35Z"/><path class="cls-4" d="M251.85,70.92l4.98,13.15,5.17-13.15h2.1v14.99h-1.43v-12.96h-.04l-5.12,12.96h-1.34l-4.93-12.96h-.04v12.96h-1.43v-14.99h2.1Z"/><path class="cls-4" d="M265.55,70.92h1.68l4.93,7.6,4.91-7.6h1.7l-5.92,8.82v6.17h-1.43v-6.17l-5.88-8.82Z"/><line class="cls-2" x1="104.03" y1="61.96" x2="280.99" y2="61.96"/></svg>