<?xml version="1.0" encoding="UTF-8"?>
<!DOCTYPE svg PUBLIC "-//W3C//DTD SVG 1.1//EN" "http://www.w3.org/Graphics/SVG/1.1/DTD/svg11.dtd">
<!-- Creator: CorelDRAW 2020 (64-Bit) -->
<svg xmlns="http://www.w3.org/2000/svg" xml:space="preserve" width="50.8mm" height="20.4094mm" version="1.1" style="shape-rendering:geometricPrecision; text-rendering:geometricPrecision; image-rendering:optimizeQuality; fill-rule:evenodd; clip-rule:evenodd"
viewBox="0 0 1309.31 526.03"
 xmlns:xlink="http://www.w3.org/1999/xlink"
 xmlns:xodm="http://www.corel.com/coreldraw/odm/2003">
 <defs>
  <style type="text/css">
   <![CDATA[
    .fil5 {fill:#FEFEFE}
    .fil2 {fill:#2B2A29}
    .fil6 {fill:#FEFEFE;fill-rule:nonzero}
    .fil4 {fill:#2B2A29;fill-rule:nonzero}
    .fil1 {fill:#D1232B;fill-rule:nonzero}
    .fil0 {fill:#5D6A67;fill-rule:nonzero}
    .fil3 {fill:#009976;fill-rule:nonzero}
   ]]>
  </style>
 </defs>
 <g id="Layer_x0020_1">
  <metadata id="CorelCorpID_0Corel-Layer"/>
  <g id="_1659662322688">
   <path class="fil0" d="M950.73 308.45c0,23.21 -2.54,45.85 -7.46,67.62 -3.63,16.37 -8.55,32.23 -14.77,47.46 -15.52,38.71 -38.7,73.46 -67.63,102.5l-437.15 0c-55.55,-55.74 -89.9,-132.63 -89.9,-217.58 0,-170.36 138.14,-308.45 308.45,-308.45 92.34,0 175.19,40.57 231.71,104.87 0.36,0.37 0.68,0.72 0.99,1.09 1.03,1.24 2.12,2.44 3.11,3.68 1.24,1.5 2.49,3 3.68,4.5 1.71,2.02 3.32,4.04 4.87,6.12 3.16,3.99 6.17,8.08 8.96,12.28 2.95,4.15 5.75,8.4 8.45,12.7 17.41,27.82 30.47,58.6 38.29,91.45 3.73,15.54 6.21,31.55 7.51,47.92 0.57,7.88 0.88,15.8 0.88,23.84z"/>
   <polygon class="fil1" points="1073.01,254.87 -0,254.87 -0,526.03 1073.01,526.03 "/>
   <g>
    <g>
     <path class="fil2" d="M456.93 158.77l40.23 50.01c5.17,6.32 5.1,10.72 1.23,17.38 -5.36,11.88 -22.5,39.52 -16.17,38.95 2.87,0 27.16,-22.02 41.34,-33.51 1.77,-2.7 39.9,-3.66 59.25,-5 6.32,0 6.32,1.72 2.3,8.62l-60.35 109.21c24.12,0.25 52.97,-32.47 82.19,-67.82 1.64,-3.15 6.61,-5.89 15.45,-8.16 25.93,-7.36 52.95,-21.73 30.53,-31.5 -3.45,-1.72 -10.92,-2.3 -5.75,-9.77 2.3,-5.17 6.32,-17.82 12.07,-18.39 93.69,-9.77 147.14,-55.75 135.28,-73.7 -6.9,-8.62 -24.91,-28.56 -28.74,-20.76 -10.39,23.27 -23.22,31.39 -39.87,35.84 -21.26,6.21 -28.16,-3.45 -24.14,-15.52 2.3,-5.17 10.48,-5.45 13.79,-6.9 9.32,-3.04 37.36,-20.12 20.69,-22.99 -20.33,-2.96 -37.1,0.06 -62.07,9.77 -33.34,12.07 -94.26,51.15 -135.65,71.85 -6.26,3.82 -13.11,4.04 -18.39,-0.57 -14.29,-12.56 -35.21,-22.42 -59.2,-31.04 -5.35,-2.61 -6.9,0.57 -4.02,4.02z"/>
     <path class="fil2" d="M550.62 166.82c-1.72,0.57 -6.32,-1.72 -4.02,-3.45 8.62,-7.47 10.92,-20.12 23.56,-18.97 -1.72,4.02 -1.15,7.28 -1.72,10.92 0,4.02 -12.07,4.02 -17.82,11.5z"/>
     <path class="fil2" d="M698.91 85.77c12.97,-2.32 26.58,-2.58 34.49,4.02 10.35,-13.79 19.54,-39.08 29.12,-51.22 -32.57,2.94 -42.4,31.46 -63.6,47.19z"/>
    </g>
   </g>
   <polygon class="fil3" points="1309.31,254.87 1092.38,254.87 1092.38,526.03 1309.31,526.03 "/>
   <path class="fil4" d="M1150.35 459.92l60.93 0 7.82 -30.73 -50.81 0c-3.55,0 -4.44,-0.36 -4.44,-4.09l0 -6.93 45.3 0c5.86,0 9.77,-2.84 9.77,-9.06l0 -23.98c0,-14.92 -7.64,-23.09 -23.27,-23.09l-45.3 0c-15.28,0 -23.27,7.99 -23.27,23.09l0 54.18c0,13.14 8.53,20.61 23.27,20.61zm13.5 -60.22l0 -7.11c0,-3.73 1.24,-5.33 5.15,-5.33l10.84 0c4.09,0 4.8,1.42 4.8,5.33l0 7.11 -20.78 0zm90.6 62.71c13.32,0 20.61,-3.73 20.61,-19.01 0,-15.1 -7.28,-19.36 -20.61,-19.36 -13.5,0 -20.78,4.26 -20.78,19.36 0,15.28 7.28,19.01 20.78,19.01z"/>
   <g>
    <g>
     <path class="fil5" d="M446.9 153.14l40.23 50c5.17,6.32 5.1,10.72 1.23,17.38 -5.36,11.88 -22.5,39.52 -16.17,38.95 2.87,0 27.16,-22.02 41.34,-33.51 1.77,-2.7 39.9,-3.66 59.25,-5 6.32,0 6.32,1.72 2.3,8.62l-60.35 109.21c24.12,0.26 52.97,-32.47 82.2,-67.82 1.64,-3.15 6.61,-5.89 15.45,-8.15 25.93,-7.36 52.94,-21.73 30.53,-31.5 -3.45,-1.72 -10.92,-2.3 -5.75,-9.77 2.3,-5.18 6.32,-17.82 12.07,-18.39 93.69,-9.77 147.14,-55.75 135.28,-73.7 -6.9,-8.62 -24.91,-28.56 -28.74,-20.76 -10.39,23.27 -23.22,31.39 -39.87,35.84 -21.26,6.21 -28.16,-3.45 -24.14,-15.52 2.3,-5.17 10.48,-5.45 13.79,-6.9 9.32,-3.03 37.36,-20.12 20.69,-22.99 -20.33,-2.96 -37.1,0.06 -62.08,9.77 -33.34,12.07 -94.26,51.16 -135.64,71.85 -6.26,3.82 -13.12,4.04 -18.39,-0.57 -14.29,-12.56 -35.21,-22.42 -59.2,-31.04 -5.35,-2.61 -6.9,0.57 -4.02,4.02z"/>
     <path class="fil5" d="M540.59 161.19c-1.72,0.57 -6.32,-1.72 -4.02,-3.45 8.62,-7.47 10.92,-20.12 23.56,-18.97 -1.72,4.02 -1.15,7.28 -1.72,10.92 0,4.02 -12.07,4.02 -17.82,11.5z"/>
     <path class="fil5" d="M688.88 80.14c12.97,-2.33 26.58,-2.59 34.49,4.02 10.35,-13.79 19.54,-39.09 29.12,-51.22 -32.57,2.93 -42.4,31.46 -63.6,47.19z"/>
    </g>
   </g>
   <path class="fil6" d="M120.64 460.36c22.78,0 30.95,-7.01 30.95,-29.79l0 -28.03c0,-22.97 -6.81,-29.01 -29.59,-29.01l-34.26 0c-2.34,0 -2.92,-0.97 -2.92,-3.12l0 -10.9c0,-2.34 0.58,-2.92 2.53,-2.92l62.88 0 -7.79 -37.77 -70.47 0c-22.97,0 -30.95,7.4 -30.95,30.57l0 28.42c0,22.58 6.23,28.81 29.39,28.81l31.54 0c2.34,0 3.11,1.17 3.11,3.31l0 9.73c0,2.34 -0.78,2.92 -2.72,2.92l-59.38 0 7.79 37.77 69.89 0zm105.52 -85.66l-6.04 0 0 -55.87 -48.67 0 0 141.53 48.67 0 0 -51.4 8.18 0 17.33 51.4 52.37 0 -29.01 -74.56 29.01 -66.97 -49.25 0 -22.58 55.87zm122.45 85.66l3.12 -15.19 36.41 0 2.92 15.19 46.33 0 -35.82 -141.53 -63.66 0 -35.63 141.53 46.33 0zm21.22 -103.38l11.87 58.02 -23.75 0 11.88 -58.02zm169.18 103.38l9.54 -37.77 -51.2 0 0 -103.76 -45.56 0 0 141.53 87.22 0zm65.41 0l3.12 -15.19 36.41 0 2.92 15.19 46.33 0 -35.82 -141.53 -63.66 0 -35.63 141.53 46.33 0zm21.22 -103.38l11.87 58.02 -23.75 0 11.88 -58.02zm134.52 59.57c4.48,0 7.01,2.34 8.57,6.42l12.85 37.38 49.64 0 -13.63 -38.74c-2.14,-6.43 -5.26,-10.32 -11.1,-11.49 13.63,0 21.03,-10.51 21.03,-22.58l0 -37.18c0,-22.19 -9.93,-31.54 -32.12,-31.54l-87.22 0 0 141.53 46.14 0 0 -43.8 5.84 0zm-6.62 -32.12l0 -29.79 22 0c5.45,0 7.98,2.92 7.98,8.37l0 11.29c0,7.59 -2.53,10.12 -12.65,10.12l-17.33 0zm147.96 -9.73l-6.04 0 0 -55.87 -48.67 0 0 141.53 48.67 0 0 -51.4 8.18 0 17.33 51.4 52.37 0 -29.01 -74.56 29.01 -66.97 -49.25 0 -22.58 55.87zm84.88 85.66l44.39 0 0 -141.53 -44.39 0 0 141.53z"/>
  </g>
 </g>
</svg>
