<?xml version="1.0" encoding="UTF-8"?>
<svg id="_图层_1" data-name="图层 1" xmlns="http://www.w3.org/2000/svg" viewBox="0 0 314.01 44.71">
  <defs>
    <style>
      .cls-1 {
        fill: #e60013;
      }
    </style>
  </defs>
  <path d="M69.46,44.71V0h8.94v44.71h-8.94Z"/>
  <path d="M88.27,44.71V0h9.08l20.58,28.84V0h9.08v44.71h-9.08l-20.58-27.77v27.77h-9.08Z"/>
  <path d="M201.91,44.71V0h8.94v44.71h-8.94Z"/>
  <path d="M220.72,44.71V0h9.08l20.58,28.84V0h9.08v44.71h-9.08l-20.58-27.77v27.77h-9.08Z"/>
  <g>
    <polygon points="63.08 0 52.55 0 42.09 22.51 39.59 16.91 34.72 27.72 42.37 44.71 63.08 0"/>
    <polygon points="36.58 10.88 31.68 0 21.63 22.51 10.53 0 0 0 21.35 44.71 36.58 10.88"/>
  </g>
  <path class="cls-1" d="M314.01,22.35c0,12.33-10.71,22.36-23.87,22.36s-23.86-10.03-23.86-22.36S276.99,0,290.15,0c6.66,0,12.69,2.57,17.03,6.71l-6.18,5.68c-2.75-2.69-6.6-4.36-10.85-4.36-8.35,0-15.13,6.43-15.13,14.33s6.79,14.33,15.13,14.33c6.87,0,12.68-4.36,14.52-10.32h-15.09l8.73-8.03h15.31c.25,1.3.39,2.64.39,4.01Z"/>
  <g>
    <polygon points="196 0 185.47 0 175 22.51 172.51 16.91 167.64 27.72 175.29 44.71 196 0"/>
    <polygon points="169.5 10.88 164.6 0 154.55 22.51 143.45 0 132.92 0 154.27 44.71 169.5 10.88"/>
  </g>
</svg>